<?xml version="1.0"?>
<svg xmlns="http://www.w3.org/2000/svg" xmlns:xlink="http://www.w3.org/1999/xlink" width="500" zoomAndPan="magnify" viewBox="0 0 375 374.999991" height="500" preserveAspectRatio="xMidYMid meet" version="1.2" style="background-color:transparent;">
  <defs>
    <clipPath id="47c7c4fa94">
      <path d="M 78 136.867188 L 88 136.867188 L 88 146 L 78 146 Z M 78 136.867188 "/>
    </clipPath>
    <clipPath id="8899ee2228">
      <path d="M 93 136.867188 L 103 136.867188 L 103 146 L 93 146 Z M 93 136.867188 "/>
    </clipPath>
    <clipPath id="1ba22ea301">
      <path d="M 54.230469 176 L 64 176 L 64 186 L 54.230469 186 Z M 54.230469 176 "/>
    </clipPath>
    <clipPath id="213179b554">
      <path d="M 92 161 L 124 161 L 124 206.617188 L 92 206.617188 Z M 92 161 "/>
    </clipPath>
  </defs>
  <g id="b6fbe895b1">
    <rect x="0" width="375" y="0" height="374.999991" style="fill:none;fill-opacity:1;stroke:none;" fill="none"/>
    <rect x="0" width="375" y="0" height="374.999991" style="fill:none;fill-opacity:1;stroke:none;" fill="none"/>
    <path style=" stroke:none;fill-rule:nonzero;fill:#2ad495;fill-opacity:1;" d="M 115.347656 151.941406 C 116.355469 150.578125 116.082031 148.652344 114.730469 147.632812 C 113.378906 146.613281 111.46875 146.894531 110.457031 148.253906 C 105.804688 154.523438 98.386719 158.265625 90.617188 158.265625 C 82.847656 158.265625 75.433594 154.523438 70.777344 148.253906 C 69.769531 146.894531 67.855469 146.613281 66.503906 147.632812 C 65.15625 148.652344 64.878906 150.578125 65.890625 151.941406 C 71.691406 159.757812 80.933594 164.421875 90.617188 164.421875 C 100.300781 164.421875 109.546875 159.757812 115.347656 151.941406 "/>
    <g clip-rule="nonzero" clip-path="url(#47c7c4fa94)">
      <path style=" stroke:none;fill-rule:nonzero;fill:#2ad495;fill-opacity:1;" d="M 82.953125 145.589844 C 85.339844 145.589844 87.277344 143.636719 87.277344 141.230469 C 87.277344 138.824219 85.339844 136.871094 82.953125 136.871094 C 80.5625 136.871094 78.625 138.824219 78.625 141.230469 C 78.625 143.636719 80.5625 145.589844 82.953125 145.589844 "/>
    </g>
    <g clip-rule="nonzero" clip-path="url(#8899ee2228)">
      <path style=" stroke:none;fill-rule:nonzero;fill:#2ad495;fill-opacity:1;" d="M 98.285156 145.589844 C 100.671875 145.589844 102.609375 143.636719 102.609375 141.230469 C 102.609375 138.824219 100.671875 136.871094 98.285156 136.871094 C 95.894531 136.871094 93.960938 138.824219 93.960938 141.230469 C 93.960938 143.636719 95.894531 145.589844 98.285156 145.589844 "/>
    </g>
    <path style=" stroke:none;fill-rule:nonzero;fill:#ffc100;fill-opacity:1;" d="M 59.859375 160.691406 C 58.183594 160.488281 56.664062 161.695312 56.464844 163.382812 C 56.265625 165.070312 57.460938 166.601562 59.132812 166.804688 C 66.851562 167.734375 73.773438 172.335938 77.660156 179.117188 C 81.542969 185.898438 82.035156 194.246094 78.976562 201.445312 C 78.3125 203.007812 79.03125 204.816406 80.578125 205.484375 C 80.972656 205.65625 81.378906 205.734375 81.78125 205.734375 C 82.964844 205.734375 84.089844 205.035156 84.585938 203.871094 C 88.402344 194.898438 87.789062 184.492188 82.945312 176.039062 C 78.105469 167.589844 69.472656 161.851562 59.859375 160.691406 "/>
    <path style=" stroke:none;fill-rule:nonzero;fill:#ffc100;fill-opacity:1;" d="M 64.691406 190.554688 C 62.625 191.757812 61.914062 194.425781 63.109375 196.507812 C 64.304688 198.59375 66.949219 199.308594 69.015625 198.105469 C 71.085938 196.902344 71.792969 194.234375 70.597656 192.148438 C 69.40625 190.066406 66.761719 189.351562 64.691406 190.554688 "/>
    <g clip-rule="nonzero" clip-path="url(#1ba22ea301)">
      <path style=" stroke:none;fill-rule:nonzero;fill:#ffc100;fill-opacity:1;" d="M 62.933594 178.765625 C 61.738281 176.679688 59.09375 175.964844 57.027344 177.167969 C 54.957031 178.371094 54.25 181.039062 55.441406 183.125 C 56.636719 185.207031 59.28125 185.921875 61.351562 184.71875 C 63.417969 183.515625 64.128906 180.847656 62.933594 178.765625 "/>
    </g>
    <g clip-rule="nonzero" clip-path="url(#213179b554)">
      <path style=" stroke:none;fill-rule:nonzero;fill:#ff0472;fill-opacity:1;" d="M 123.242188 164.273438 C 123.042969 162.585938 121.523438 161.382812 119.851562 161.582031 C 110.234375 162.738281 101.605469 168.476562 96.765625 176.929688 C 91.921875 185.382812 91.308594 195.785156 95.121094 204.757812 C 95.617188 205.925781 96.746094 206.625 97.929688 206.625 C 98.332031 206.625 98.738281 206.542969 99.128906 206.375 C 100.679688 205.703125 101.398438 203.898438 100.734375 202.332031 C 97.675781 195.136719 98.167969 186.789062 102.050781 180.007812 C 105.933594 173.222656 112.859375 168.621094 120.574219 167.691406 C 122.25 167.492188 123.445312 165.960938 123.242188 164.273438 "/>
    </g>
    <path style=" stroke:none;fill-rule:nonzero;fill:#ff0472;fill-opacity:1;" d="M 122.683594 178.058594 C 120.613281 176.851562 117.96875 177.566406 116.777344 179.652344 C 115.582031 181.738281 116.289062 184.402344 118.359375 185.609375 C 120.425781 186.8125 123.074219 186.097656 124.265625 184.011719 C 125.460938 181.925781 124.753906 179.261719 122.683594 178.058594 "/>
    <path style=" stroke:none;fill-rule:nonzero;fill:#ff0472;fill-opacity:1;" d="M 115.015625 191.441406 C 112.949219 190.238281 110.304688 190.953125 109.109375 193.039062 C 107.914062 195.125 108.625 197.789062 110.691406 198.992188 C 112.761719 200.195312 115.40625 199.480469 116.601562 197.398438 C 117.792969 195.3125 117.085938 192.644531 115.015625 191.441406 "/>
    <g style="fill:#161d29;fill-opacity:1;">
      <g transform="translate(130.636161, 165.269932)">
        <path style="stroke:none" d="M 8.34375 0.1875 C 7.300781 0.1875 6.320312 -0.00390625 5.40625 -0.390625 C 4.5 -0.773438 3.703125 -1.3125 3.015625 -2 C 2.335938 -2.695312 1.800781 -3.492188 1.40625 -4.390625 C 1.019531 -5.296875 0.828125 -6.269531 0.828125 -7.3125 C 0.828125 -8.351562 1.019531 -9.328125 1.40625 -10.234375 C 1.800781 -11.140625 2.335938 -11.9375 3.015625 -12.625 C 3.703125 -13.3125 4.5 -13.847656 5.40625 -14.234375 C 6.320312 -14.628906 7.300781 -14.828125 8.34375 -14.828125 C 9.789062 -14.828125 11.109375 -14.445312 12.296875 -13.6875 C 13.492188 -12.9375 14.40625 -11.953125 15.03125 -10.734375 L 11.8125 -9.09375 C 11.5 -9.726562 11.035156 -10.234375 10.421875 -10.609375 C 9.816406 -10.984375 9.125 -11.171875 8.34375 -11.171875 C 7.613281 -11.171875 6.953125 -11.003906 6.359375 -10.671875 C 5.773438 -10.335938 5.3125 -9.878906 4.96875 -9.296875 C 4.632812 -8.722656 4.46875 -8.0625 4.46875 -7.3125 C 4.46875 -6.582031 4.632812 -5.925781 4.96875 -5.34375 C 5.3125 -4.757812 5.773438 -4.300781 6.359375 -3.96875 C 6.953125 -3.632812 7.613281 -3.46875 8.34375 -3.46875 C 9.125 -3.46875 9.816406 -3.65625 10.421875 -4.03125 C 11.035156 -4.40625 11.5 -4.90625 11.8125 -5.53125 L 15.03125 -3.90625 C 14.40625 -2.6875 13.492188 -1.695312 12.296875 -0.9375 C 11.109375 -0.1875 9.789062 0.1875 8.34375 0.1875 Z M 8.34375 0.1875 "/>
      </g>
    </g>
    <g style="fill:#161d29;fill-opacity:1;">
      <g transform="translate(146.968035, 165.269932)">
        <path style="stroke:none" d="M 10.34375 -14.640625 L 14.078125 -14.640625 L 14.078125 0 L 10.34375 0 L 10.34375 -5.703125 L 5.078125 -5.703125 L 5.078125 0 L 1.34375 0 L 1.34375 -14.640625 L 5.078125 -14.640625 L 5.078125 -8.953125 L 10.34375 -8.953125 Z M 10.34375 -14.640625 "/>
      </g>
    </g>
    <g style="fill:#161d29;fill-opacity:1;">
      <g transform="translate(163.129186, 165.269932)">
        <path style="stroke:none" d="M 8.34375 0.1875 C 7.300781 0.1875 6.320312 -0.00390625 5.40625 -0.390625 C 4.5 -0.773438 3.703125 -1.3125 3.015625 -2 C 2.335938 -2.695312 1.800781 -3.492188 1.40625 -4.390625 C 1.019531 -5.296875 0.828125 -6.269531 0.828125 -7.3125 C 0.828125 -8.351562 1.019531 -9.328125 1.40625 -10.234375 C 1.800781 -11.140625 2.335938 -11.9375 3.015625 -12.625 C 3.703125 -13.3125 4.5 -13.847656 5.40625 -14.234375 C 6.320312 -14.628906 7.300781 -14.828125 8.34375 -14.828125 C 9.382812 -14.828125 10.351562 -14.628906 11.25 -14.234375 C 12.15625 -13.847656 12.953125 -13.3125 13.640625 -12.625 C 14.335938 -11.9375 14.878906 -11.140625 15.265625 -10.234375 C 15.660156 -9.328125 15.859375 -8.351562 15.859375 -7.3125 C 15.859375 -6.269531 15.660156 -5.296875 15.265625 -4.390625 C 14.878906 -3.492188 14.335938 -2.695312 13.640625 -2 C 12.953125 -1.3125 12.15625 -0.773438 11.25 -0.390625 C 10.351562 -0.00390625 9.382812 0.1875 8.34375 0.1875 Z M 8.34375 -3.46875 C 9.070312 -3.46875 9.726562 -3.632812 10.3125 -3.96875 C 10.90625 -4.300781 11.367188 -4.757812 11.703125 -5.34375 C 12.035156 -5.925781 12.203125 -6.582031 12.203125 -7.3125 C 12.203125 -8.0625 12.035156 -8.722656 11.703125 -9.296875 C 11.367188 -9.878906 10.90625 -10.335938 10.3125 -10.671875 C 9.726562 -11.003906 9.070312 -11.171875 8.34375 -11.171875 C 7.613281 -11.171875 6.953125 -11.003906 6.359375 -10.671875 C 5.773438 -10.335938 5.3125 -9.878906 4.96875 -9.296875 C 4.632812 -8.722656 4.46875 -8.0625 4.46875 -7.3125 C 4.46875 -6.582031 4.632812 -5.925781 4.96875 -5.34375 C 5.3125 -4.757812 5.773438 -4.300781 6.359375 -3.96875 C 6.953125 -3.632812 7.613281 -3.46875 8.34375 -3.46875 Z M 8.34375 -3.46875 "/>
      </g>
    </g>
    <g style="fill:#161d29;fill-opacity:1;">
      <g transform="translate(180.509819, 165.269932)">
        <path style="stroke:none" d="M 10.65625 -14.640625 L 10.65625 -11.390625 L 7.078125 -11.390625 L 7.078125 0 L 3.359375 0 L 3.359375 -11.390625 L -0.21875 -11.390625 L -0.21875 -14.640625 Z M 10.65625 -14.640625 "/>
      </g>
    </g>
    <g style="fill:#161d29;fill-opacity:1;">
      <g transform="translate(191.671081, 165.269932)">
        <path style="stroke:none" d="M 10.3125 0 L 9.515625 -2.5625 L 4.390625 -2.5625 L 3.59375 0 L -0.4375 0 L 4.859375 -14.640625 L 9.03125 -14.640625 L 14.3125 0 Z M 5.34375 -5.59375 L 8.59375 -5.59375 L 6.953125 -10.765625 Z M 5.34375 -5.59375 "/>
      </g>
    </g>
    <g style="fill:#161d29;fill-opacity:1;">
      <g transform="translate(206.295679, 165.269932)">
        <path style="stroke:none" d=""/>
      </g>
    </g>
    <g style="fill:#161d29;fill-opacity:1;">
      <g transform="translate(212.871683, 165.269932)">
        <path style="stroke:none" d="M 1.46875 0 L 1.46875 -14.640625 L 5.203125 -14.640625 L 5.203125 0 Z M 1.46875 0 "/>
      </g>
    </g>
    <g style="fill:#161d29;fill-opacity:1;">
      <g transform="translate(220.228151, 165.269932)">
        <path style="stroke:none" d="M 11.859375 -14.640625 L 15.59375 -14.640625 L 15.59375 0 L 11.65625 0 L 5.078125 -8.984375 L 5.078125 0 L 1.34375 0 L 1.34375 -14.640625 L 5.25 -14.640625 L 11.859375 -5.6875 Z M 11.859375 -14.640625 "/>
      </g>
    </g>
    <g style="fill:#161d29;fill-opacity:1;">
      <g transform="translate(237.877068, 165.269932)">
        <path style="stroke:none" d="M 10.140625 -14.640625 L 14.3125 -14.640625 L 9.03125 0 L 4.859375 0 L -0.4375 -14.640625 L 3.75 -14.640625 L 6.953125 -4.90625 Z M 10.140625 -14.640625 "/>
      </g>
    </g>
    <g style="fill:#161d29;fill-opacity:1;">
      <g transform="translate(252.501666, 165.269932)">
        <path style="stroke:none" d="M 10.53125 -11.390625 L 5.203125 -11.390625 L 5.203125 -8.921875 L 9.703125 -8.921875 L 9.703125 -5.703125 L 5.203125 -5.703125 L 5.203125 -3.25 L 10.53125 -3.25 L 10.53125 0 L 1.46875 0 L 1.46875 -14.640625 L 10.53125 -14.640625 Z M 10.53125 -11.390625 "/>
      </g>
    </g>
    <g style="fill:#161d29;fill-opacity:1;">
      <g transform="translate(264.589739, 165.269932)">
        <path style="stroke:none" d="M 6.125 0.1875 C 5.226562 0.1875 4.398438 0.0390625 3.640625 -0.25 C 2.890625 -0.550781 2.226562 -0.957031 1.65625 -1.46875 C 1.09375 -1.988281 0.644531 -2.554688 0.3125 -3.171875 L 3.359375 -5.078125 C 3.617188 -4.523438 3.992188 -4.085938 4.484375 -3.765625 C 4.972656 -3.453125 5.535156 -3.296875 6.171875 -3.296875 C 6.640625 -3.296875 6.992188 -3.390625 7.234375 -3.578125 C 7.484375 -3.765625 7.609375 -4.003906 7.609375 -4.296875 C 7.609375 -4.671875 7.445312 -4.960938 7.125 -5.171875 C 6.8125 -5.378906 6.398438 -5.566406 5.890625 -5.734375 C 5.378906 -5.898438 4.84375 -6.078125 4.28125 -6.265625 C 3.71875 -6.460938 3.179688 -6.71875 2.671875 -7.03125 C 2.160156 -7.351562 1.742188 -7.773438 1.421875 -8.296875 C 1.109375 -8.828125 0.953125 -9.519531 0.953125 -10.375 C 0.953125 -11.40625 1.195312 -12.25 1.6875 -12.90625 C 2.175781 -13.570312 2.796875 -14.054688 3.546875 -14.359375 C 4.304688 -14.671875 5.066406 -14.828125 5.828125 -14.828125 C 6.742188 -14.828125 7.613281 -14.628906 8.4375 -14.234375 C 9.269531 -13.847656 9.96875 -13.320312 10.53125 -12.65625 L 8.09375 -10.296875 C 7.300781 -11.140625 6.53125 -11.5625 5.78125 -11.5625 C 5.488281 -11.5625 5.234375 -11.488281 5.015625 -11.34375 C 4.804688 -11.195312 4.703125 -10.960938 4.703125 -10.640625 C 4.703125 -10.265625 4.859375 -9.972656 5.171875 -9.765625 C 5.492188 -9.566406 5.90625 -9.390625 6.40625 -9.234375 C 6.914062 -9.078125 7.453125 -8.894531 8.015625 -8.6875 C 8.585938 -8.488281 9.125 -8.21875 9.625 -7.875 C 10.132812 -7.53125 10.546875 -7.070312 10.859375 -6.5 C 11.179688 -5.925781 11.34375 -5.175781 11.34375 -4.25 C 11.34375 -3.300781 11.101562 -2.5 10.625 -1.84375 C 10.144531 -1.1875 9.507812 -0.679688 8.71875 -0.328125 C 7.925781 0.015625 7.0625 0.1875 6.125 0.1875 Z M 6.125 0.1875 "/>
      </g>
    </g>
    <g style="fill:#161d29;fill-opacity:1;">
      <g transform="translate(277.189993, 165.269932)">
        <path style="stroke:none" d="M 10.65625 -14.640625 L 10.65625 -11.390625 L 7.078125 -11.390625 L 7.078125 0 L 3.359375 0 L 3.359375 -11.390625 L -0.21875 -11.390625 L -0.21875 -14.640625 Z M 10.65625 -14.640625 "/>
      </g>
    </g>
    <g style="fill:#161d29;fill-opacity:1;">
      <g transform="translate(288.351254, 165.269932)">
        <path style="stroke:none" d="M 8.34375 0.1875 C 7.300781 0.1875 6.320312 -0.00390625 5.40625 -0.390625 C 4.5 -0.773438 3.703125 -1.3125 3.015625 -2 C 2.335938 -2.695312 1.800781 -3.492188 1.40625 -4.390625 C 1.019531 -5.296875 0.828125 -6.269531 0.828125 -7.3125 C 0.828125 -8.351562 1.019531 -9.328125 1.40625 -10.234375 C 1.800781 -11.140625 2.335938 -11.9375 3.015625 -12.625 C 3.703125 -13.3125 4.5 -13.847656 5.40625 -14.234375 C 6.320312 -14.628906 7.300781 -14.828125 8.34375 -14.828125 C 9.382812 -14.828125 10.351562 -14.628906 11.25 -14.234375 C 12.15625 -13.847656 12.953125 -13.3125 13.640625 -12.625 C 14.335938 -11.9375 14.878906 -11.140625 15.265625 -10.234375 C 15.660156 -9.328125 15.859375 -8.351562 15.859375 -7.3125 C 15.859375 -6.269531 15.660156 -5.296875 15.265625 -4.390625 C 14.878906 -3.492188 14.335938 -2.695312 13.640625 -2 C 12.953125 -1.3125 12.15625 -0.773438 11.25 -0.390625 C 10.351562 -0.00390625 9.382812 0.1875 8.34375 0.1875 Z M 8.34375 -3.46875 C 9.070312 -3.46875 9.726562 -3.632812 10.3125 -3.96875 C 10.90625 -4.300781 11.367188 -4.757812 11.703125 -5.34375 C 12.035156 -5.925781 12.203125 -6.582031 12.203125 -7.3125 C 12.203125 -8.0625 12.035156 -8.722656 11.703125 -9.296875 C 11.367188 -9.878906 10.90625 -10.335938 10.3125 -10.671875 C 9.726562 -11.003906 9.070312 -11.171875 8.34375 -11.171875 C 7.613281 -11.171875 6.953125 -11.003906 6.359375 -10.671875 C 5.773438 -10.335938 5.3125 -9.878906 4.96875 -9.296875 C 4.632812 -8.722656 4.46875 -8.0625 4.46875 -7.3125 C 4.46875 -6.582031 4.632812 -5.925781 4.96875 -5.34375 C 5.3125 -4.757812 5.773438 -4.300781 6.359375 -3.96875 C 6.953125 -3.632812 7.613281 -3.46875 8.34375 -3.46875 Z M 8.34375 -3.46875 "/>
      </g>
    </g>
    <g style="fill:#161d29;fill-opacity:1;">
      <g transform="translate(305.731888, 165.269932)">
        <path style="stroke:none" d="M 9.484375 -5.8125 L 13.53125 0 L 9.34375 0 L 5.921875 -5.359375 L 5.078125 -5.359375 L 5.078125 0 L 1.34375 0 L 1.34375 -14.640625 L 7.859375 -14.640625 C 8.734375 -14.640625 9.507812 -14.429688 10.1875 -14.015625 C 10.863281 -13.597656 11.390625 -13.039062 11.765625 -12.34375 C 12.148438 -11.644531 12.34375 -10.875 12.34375 -10.03125 C 12.34375 -9.03125 12.078125 -8.148438 11.546875 -7.390625 C 11.023438 -6.628906 10.335938 -6.101562 9.484375 -5.8125 Z M 7.25 -8.375 C 7.6875 -8.375 8.046875 -8.515625 8.328125 -8.796875 C 8.609375 -9.078125 8.75 -9.4375 8.75 -9.875 C 8.75 -10.3125 8.609375 -10.671875 8.328125 -10.953125 C 8.046875 -11.242188 7.6875 -11.390625 7.25 -11.390625 L 5.078125 -11.390625 L 5.078125 -8.375 Z M 7.25 -8.375 "/>
      </g>
    </g>
    <g style="fill:#161d29;fill-opacity:1;">
      <g transform="translate(165.0862, 179.999988)">
        <path style="stroke:none" d="M 2.8125 0.09375 C 2.25 0.09375 1.75 -0.0390625 1.3125 -0.3125 C 0.875 -0.59375 0.554688 -0.96875 0.359375 -1.4375 L 1.09375 -1.859375 C 1.226562 -1.515625 1.441406 -1.234375 1.734375 -1.015625 C 2.035156 -0.804688 2.398438 -0.703125 2.828125 -0.703125 C 3.242188 -0.703125 3.597656 -0.8125 3.890625 -1.03125 C 4.179688 -1.25 4.328125 -1.554688 4.328125 -1.953125 C 4.328125 -2.265625 4.238281 -2.519531 4.0625 -2.71875 C 3.894531 -2.914062 3.671875 -3.082031 3.390625 -3.21875 C 3.109375 -3.351562 2.8125 -3.476562 2.5 -3.59375 C 2.1875 -3.71875 1.890625 -3.863281 1.609375 -4.03125 C 1.328125 -4.195312 1.097656 -4.40625 0.921875 -4.65625 C 0.753906 -4.914062 0.671875 -5.25 0.671875 -5.65625 C 0.671875 -6.0625 0.765625 -6.410156 0.953125 -6.703125 C 1.140625 -7.003906 1.390625 -7.234375 1.703125 -7.390625 C 2.023438 -7.554688 2.378906 -7.640625 2.765625 -7.640625 C 3.203125 -7.640625 3.59375 -7.546875 3.9375 -7.359375 C 4.28125 -7.179688 4.554688 -6.957031 4.765625 -6.6875 L 4.140625 -6.171875 C 3.835938 -6.609375 3.382812 -6.828125 2.78125 -6.828125 C 2.4375 -6.828125 2.128906 -6.734375 1.859375 -6.546875 C 1.597656 -6.367188 1.46875 -6.09375 1.46875 -5.71875 C 1.46875 -5.414062 1.554688 -5.171875 1.734375 -4.984375 C 1.910156 -4.796875 2.140625 -4.632812 2.421875 -4.5 C 2.703125 -4.375 2.992188 -4.25 3.296875 -4.125 C 3.609375 -4.007812 3.90625 -3.863281 4.1875 -3.6875 C 4.46875 -3.519531 4.695312 -3.300781 4.875 -3.03125 C 5.050781 -2.757812 5.140625 -2.410156 5.140625 -1.984375 C 5.140625 -1.546875 5.035156 -1.171875 4.828125 -0.859375 C 4.617188 -0.546875 4.335938 -0.304688 3.984375 -0.140625 C 3.628906 0.015625 3.238281 0.09375 2.8125 0.09375 Z M 2.8125 0.09375 "/>
      </g>
    </g>
    <g style="fill:#161d29;fill-opacity:1;">
      <g transform="translate(175.308817, 179.999988)">
        <path style="stroke:none" d="M 7.5625 -7.53125 L 8.40625 -7.53125 L 8.40625 0 L 7.609375 0 L 7.609375 -5.921875 L 4.984375 0 L 4.3125 0 L 1.71875 -5.953125 L 1.71875 0 L 0.921875 0 L 0.921875 -7.53125 L 1.765625 -7.53125 L 4.65625 -0.96875 Z M 7.5625 -7.53125 "/>
      </g>
    </g>
    <g style="fill:#161d29;fill-opacity:1;">
      <g transform="translate(189.347742, 179.999988)">
        <path style="stroke:none" d="M 5.46875 0 L 4.84375 -1.765625 L 1.5 -1.765625 L 0.875 0 L 0 0 L 2.71875 -7.53125 L 3.609375 -7.53125 L 6.34375 0 Z M 1.765625 -2.53125 L 4.578125 -2.53125 L 3.171875 -6.578125 Z M 1.765625 -2.53125 "/>
      </g>
    </g>
    <g style="fill:#161d29;fill-opacity:1;">
      <g transform="translate(200.411454, 179.999988)">
        <path style="stroke:none" d="M 1.71875 -0.796875 L 4.515625 -0.796875 L 4.515625 0 L 0.921875 0 L 0.921875 -7.53125 L 1.71875 -7.53125 Z M 1.71875 -0.796875 "/>
      </g>
    </g>
    <g style="fill:#161d29;fill-opacity:1;">
      <g transform="translate(209.76788, 179.999988)">
        <path style="stroke:none" d="M 1.71875 -0.796875 L 4.515625 -0.796875 L 4.515625 0 L 0.921875 0 L 0.921875 -7.53125 L 1.71875 -7.53125 Z M 1.71875 -0.796875 "/>
      </g>
    </g>
    <g style="fill:#161d29;fill-opacity:1;">
      <g transform="translate(226.873866, 179.999988)">
        <path style="stroke:none" d="M 0.984375 0 L 0.984375 -7.53125 L 1.78125 -7.53125 L 1.78125 0 Z M 0.984375 0 "/>
      </g>
    </g>
    <g style="fill:#161d29;fill-opacity:1;">
      <g transform="translate(234.347247, 179.999988)">
        <path style="stroke:none" d="M 6.328125 -7.53125 L 7.125 -7.53125 L 7.125 0 L 6.375 0 L 1.71875 -6.1875 L 1.71875 0 L 0.921875 0 L 0.921875 -7.53125 L 1.671875 -7.53125 L 6.328125 -1.34375 Z M 6.328125 -7.53125 "/>
      </g>
    </g>
    <g style="fill:#161d29;fill-opacity:1;">
      <g transform="translate(247.105703, 179.999988)">
        <path style="stroke:none" d="M 5.46875 -7.53125 L 6.34375 -7.53125 L 3.609375 0 L 2.71875 0 L 0 -7.53125 L 0.890625 -7.53125 L 3.171875 -1.03125 Z M 5.46875 -7.53125 "/>
      </g>
    </g>
    <g style="fill:#161d29;fill-opacity:1;">
      <g transform="translate(258.169415, 179.999988)">
        <path style="stroke:none" d="M 5.09375 -6.75 L 1.78125 -6.75 L 1.78125 -4.15625 L 4.671875 -4.15625 L 4.671875 -3.375 L 1.78125 -3.375 L 1.78125 -0.78125 L 5.09375 -0.78125 L 5.09375 0 L 0.984375 0 L 0.984375 -7.53125 L 5.09375 -7.53125 Z M 5.09375 -6.75 "/>
      </g>
    </g>
    <g style="fill:#161d29;fill-opacity:1;">
      <g transform="translate(268.743538, 179.999988)">
        <path style="stroke:none" d="M 2.8125 0.09375 C 2.25 0.09375 1.75 -0.0390625 1.3125 -0.3125 C 0.875 -0.59375 0.554688 -0.96875 0.359375 -1.4375 L 1.09375 -1.859375 C 1.226562 -1.515625 1.441406 -1.234375 1.734375 -1.015625 C 2.035156 -0.804688 2.398438 -0.703125 2.828125 -0.703125 C 3.242188 -0.703125 3.597656 -0.8125 3.890625 -1.03125 C 4.179688 -1.25 4.328125 -1.554688 4.328125 -1.953125 C 4.328125 -2.265625 4.238281 -2.519531 4.0625 -2.71875 C 3.894531 -2.914062 3.671875 -3.082031 3.390625 -3.21875 C 3.109375 -3.351562 2.8125 -3.476562 2.5 -3.59375 C 2.1875 -3.71875 1.890625 -3.863281 1.609375 -4.03125 C 1.328125 -4.195312 1.097656 -4.40625 0.921875 -4.65625 C 0.753906 -4.914062 0.671875 -5.25 0.671875 -5.65625 C 0.671875 -6.0625 0.765625 -6.410156 0.953125 -6.703125 C 1.140625 -7.003906 1.390625 -7.234375 1.703125 -7.390625 C 2.023438 -7.554688 2.378906 -7.640625 2.765625 -7.640625 C 3.203125 -7.640625 3.59375 -7.546875 3.9375 -7.359375 C 4.28125 -7.179688 4.554688 -6.957031 4.765625 -6.6875 L 4.140625 -6.171875 C 3.835938 -6.609375 3.382812 -6.828125 2.78125 -6.828125 C 2.4375 -6.828125 2.128906 -6.734375 1.859375 -6.546875 C 1.597656 -6.367188 1.46875 -6.09375 1.46875 -5.71875 C 1.46875 -5.414062 1.554688 -5.171875 1.734375 -4.984375 C 1.910156 -4.796875 2.140625 -4.632812 2.421875 -4.5 C 2.703125 -4.375 2.992188 -4.25 3.296875 -4.125 C 3.609375 -4.007812 3.90625 -3.863281 4.1875 -3.6875 C 4.46875 -3.519531 4.695312 -3.300781 4.875 -3.03125 C 5.050781 -2.757812 5.140625 -2.410156 5.140625 -1.984375 C 5.140625 -1.546875 5.035156 -1.171875 4.828125 -0.859375 C 4.617188 -0.546875 4.335938 -0.304688 3.984375 -0.140625 C 3.628906 0.015625 3.238281 0.09375 2.8125 0.09375 Z M 2.8125 0.09375 "/>
      </g>
    </g>
    <g style="fill:#161d29;fill-opacity:1;">
      <g transform="translate(278.966155, 179.999988)">
        <path style="stroke:none" d="M 5.09375 -7.53125 L 5.09375 -6.734375 L 3 -6.734375 L 3 0 L 2.203125 0 L 2.203125 -6.734375 L 0.109375 -6.734375 L 0.109375 -7.53125 Z M 5.09375 -7.53125 "/>
      </g>
    </g>
    <g style="fill:#161d29;fill-opacity:1;">
      <g transform="translate(288.887496, 179.999988)">
        <path style="stroke:none" d="M 4.484375 0.09375 C 3.953125 0.09375 3.453125 -0.00390625 2.984375 -0.203125 C 2.515625 -0.398438 2.101562 -0.675781 1.75 -1.03125 C 1.394531 -1.382812 1.113281 -1.796875 0.90625 -2.265625 C 0.707031 -2.734375 0.609375 -3.234375 0.609375 -3.765625 C 0.609375 -4.304688 0.707031 -4.804688 0.90625 -5.265625 C 1.113281 -5.734375 1.394531 -6.144531 1.75 -6.5 C 2.101562 -6.851562 2.515625 -7.128906 2.984375 -7.328125 C 3.453125 -7.535156 3.953125 -7.640625 4.484375 -7.640625 C 5.015625 -7.640625 5.515625 -7.535156 5.984375 -7.328125 C 6.453125 -7.128906 6.863281 -6.851562 7.21875 -6.5 C 7.570312 -6.144531 7.847656 -5.734375 8.046875 -5.265625 C 8.242188 -4.804688 8.34375 -4.304688 8.34375 -3.765625 C 8.34375 -3.234375 8.242188 -2.734375 8.046875 -2.265625 C 7.847656 -1.796875 7.570312 -1.382812 7.21875 -1.03125 C 6.863281 -0.675781 6.453125 -0.398438 5.984375 -0.203125 C 5.515625 -0.00390625 5.015625 0.09375 4.484375 0.09375 Z M 4.484375 -0.703125 C 5.054688 -0.703125 5.570312 -0.835938 6.03125 -1.109375 C 6.5 -1.378906 6.867188 -1.742188 7.140625 -2.203125 C 7.410156 -2.671875 7.546875 -3.191406 7.546875 -3.765625 C 7.546875 -4.335938 7.410156 -4.851562 7.140625 -5.3125 C 6.867188 -5.78125 6.5 -6.148438 6.03125 -6.421875 C 5.570312 -6.691406 5.054688 -6.828125 4.484375 -6.828125 C 3.921875 -6.828125 3.40625 -6.691406 2.9375 -6.421875 C 2.476562 -6.148438 2.109375 -5.78125 1.828125 -5.3125 C 1.554688 -4.851562 1.421875 -4.335938 1.421875 -3.765625 C 1.421875 -3.191406 1.554688 -2.671875 1.828125 -2.203125 C 2.109375 -1.742188 2.476562 -1.378906 2.9375 -1.109375 C 3.40625 -0.835938 3.921875 -0.703125 4.484375 -0.703125 Z M 4.484375 -0.703125 "/>
      </g>
    </g>
    <g style="fill:#161d29;fill-opacity:1;">
      <g transform="translate(302.587469, 179.999988)">
        <path style="stroke:none" d="M 3.96875 -3.4375 L 6.1875 0 L 5.28125 0 L 3.140625 -3.40625 L 1.71875 -3.40625 L 1.71875 0 L 0.921875 0 L 0.921875 -7.53125 L 3.609375 -7.53125 C 3.992188 -7.53125 4.347656 -7.4375 4.671875 -7.25 C 4.992188 -7.0625 5.25 -6.804688 5.4375 -6.484375 C 5.625 -6.171875 5.71875 -5.816406 5.71875 -5.421875 C 5.71875 -5.085938 5.640625 -4.773438 5.484375 -4.484375 C 5.328125 -4.203125 5.117188 -3.96875 4.859375 -3.78125 C 4.597656 -3.601562 4.300781 -3.488281 3.96875 -3.4375 Z M 1.71875 -4.171875 L 3.5625 -4.171875 C 3.945312 -4.171875 4.265625 -4.285156 4.515625 -4.515625 C 4.773438 -4.753906 4.90625 -5.066406 4.90625 -5.453125 C 4.90625 -5.828125 4.773438 -6.132812 4.515625 -6.375 C 4.253906 -6.613281 3.9375 -6.734375 3.5625 -6.734375 L 1.71875 -6.734375 Z M 1.71875 -4.171875 "/>
      </g>
    </g>
    <g style="fill:#161d29;fill-opacity:1;">
      <g transform="translate(313.613519, 179.999988)">
        <path style="stroke:none" d="M 2.8125 0.09375 C 2.25 0.09375 1.75 -0.0390625 1.3125 -0.3125 C 0.875 -0.59375 0.554688 -0.96875 0.359375 -1.4375 L 1.09375 -1.859375 C 1.226562 -1.515625 1.441406 -1.234375 1.734375 -1.015625 C 2.035156 -0.804688 2.398438 -0.703125 2.828125 -0.703125 C 3.242188 -0.703125 3.597656 -0.8125 3.890625 -1.03125 C 4.179688 -1.25 4.328125 -1.554688 4.328125 -1.953125 C 4.328125 -2.265625 4.238281 -2.519531 4.0625 -2.71875 C 3.894531 -2.914062 3.671875 -3.082031 3.390625 -3.21875 C 3.109375 -3.351562 2.8125 -3.476562 2.5 -3.59375 C 2.1875 -3.71875 1.890625 -3.863281 1.609375 -4.03125 C 1.328125 -4.195312 1.097656 -4.40625 0.921875 -4.65625 C 0.753906 -4.914062 0.671875 -5.25 0.671875 -5.65625 C 0.671875 -6.0625 0.765625 -6.410156 0.953125 -6.703125 C 1.140625 -7.003906 1.390625 -7.234375 1.703125 -7.390625 C 2.023438 -7.554688 2.378906 -7.640625 2.765625 -7.640625 C 3.203125 -7.640625 3.59375 -7.546875 3.9375 -7.359375 C 4.28125 -7.179688 4.554688 -6.957031 4.765625 -6.6875 L 4.140625 -6.171875 C 3.835938 -6.609375 3.382812 -6.828125 2.78125 -6.828125 C 2.4375 -6.828125 2.128906 -6.734375 1.859375 -6.546875 C 1.597656 -6.367188 1.46875 -6.09375 1.46875 -5.71875 C 1.46875 -5.414062 1.554688 -5.171875 1.734375 -4.984375 C 1.910156 -4.796875 2.140625 -4.632812 2.421875 -4.5 C 2.703125 -4.375 2.992188 -4.25 3.296875 -4.125 C 3.609375 -4.007812 3.90625 -3.863281 4.1875 -3.6875 C 4.46875 -3.519531 4.695312 -3.300781 4.875 -3.03125 C 5.050781 -2.757812 5.140625 -2.410156 5.140625 -1.984375 C 5.140625 -1.546875 5.035156 -1.171875 4.828125 -0.859375 C 4.617188 -0.546875 4.335938 -0.304688 3.984375 -0.140625 C 3.628906 0.015625 3.238281 0.09375 2.8125 0.09375 Z M 2.8125 0.09375 "/>
      </g>
    </g>
    <g style="fill:#161d29;fill-opacity:1;">
      <g transform="translate(190.515886, 193.499987)">
        <path style="stroke:none" d="M 4.484375 0.09375 C 3.953125 0.09375 3.453125 -0.00390625 2.984375 -0.203125 C 2.515625 -0.398438 2.101562 -0.675781 1.75 -1.03125 C 1.394531 -1.382812 1.113281 -1.796875 0.90625 -2.265625 C 0.707031 -2.734375 0.609375 -3.234375 0.609375 -3.765625 C 0.609375 -4.304688 0.707031 -4.804688 0.90625 -5.265625 C 1.113281 -5.734375 1.394531 -6.144531 1.75 -6.5 C 2.101562 -6.851562 2.515625 -7.128906 2.984375 -7.328125 C 3.453125 -7.535156 3.953125 -7.640625 4.484375 -7.640625 C 5.203125 -7.640625 5.859375 -7.457031 6.453125 -7.09375 C 7.046875 -6.738281 7.507812 -6.265625 7.84375 -5.671875 L 7.15625 -5.28125 C 6.894531 -5.75 6.523438 -6.125 6.046875 -6.40625 C 5.578125 -6.6875 5.054688 -6.828125 4.484375 -6.828125 C 3.921875 -6.828125 3.40625 -6.691406 2.9375 -6.421875 C 2.476562 -6.148438 2.109375 -5.78125 1.828125 -5.3125 C 1.554688 -4.851562 1.421875 -4.335938 1.421875 -3.765625 C 1.421875 -3.191406 1.554688 -2.671875 1.828125 -2.203125 C 2.109375 -1.742188 2.476562 -1.378906 2.9375 -1.109375 C 3.40625 -0.835938 3.921875 -0.703125 4.484375 -0.703125 C 5.054688 -0.703125 5.578125 -0.84375 6.046875 -1.125 C 6.523438 -1.414062 6.894531 -1.789062 7.15625 -2.25 L 7.84375 -1.859375 C 7.507812 -1.273438 7.046875 -0.800781 6.453125 -0.4375 C 5.859375 -0.0820312 5.203125 0.09375 4.484375 0.09375 Z M 4.484375 0.09375 "/>
      </g>
    </g>
    <g style="fill:#161d29;fill-opacity:1;">
      <g transform="translate(203.500306, 193.499987)">
        <path style="stroke:none" d="M 4.484375 0.09375 C 3.953125 0.09375 3.453125 -0.00390625 2.984375 -0.203125 C 2.515625 -0.398438 2.101562 -0.675781 1.75 -1.03125 C 1.394531 -1.382812 1.113281 -1.796875 0.90625 -2.265625 C 0.707031 -2.734375 0.609375 -3.234375 0.609375 -3.765625 C 0.609375 -4.304688 0.707031 -4.804688 0.90625 -5.265625 C 1.113281 -5.734375 1.394531 -6.144531 1.75 -6.5 C 2.101562 -6.851562 2.515625 -7.128906 2.984375 -7.328125 C 3.453125 -7.535156 3.953125 -7.640625 4.484375 -7.640625 C 5.015625 -7.640625 5.515625 -7.535156 5.984375 -7.328125 C 6.453125 -7.128906 6.863281 -6.851562 7.21875 -6.5 C 7.570312 -6.144531 7.847656 -5.734375 8.046875 -5.265625 C 8.242188 -4.804688 8.34375 -4.304688 8.34375 -3.765625 C 8.34375 -3.234375 8.242188 -2.734375 8.046875 -2.265625 C 7.847656 -1.796875 7.570312 -1.382812 7.21875 -1.03125 C 6.863281 -0.675781 6.453125 -0.398438 5.984375 -0.203125 C 5.515625 -0.00390625 5.015625 0.09375 4.484375 0.09375 Z M 4.484375 -0.703125 C 5.054688 -0.703125 5.570312 -0.835938 6.03125 -1.109375 C 6.5 -1.378906 6.867188 -1.742188 7.140625 -2.203125 C 7.410156 -2.671875 7.546875 -3.191406 7.546875 -3.765625 C 7.546875 -4.335938 7.410156 -4.851562 7.140625 -5.3125 C 6.867188 -5.78125 6.5 -6.148438 6.03125 -6.421875 C 5.570312 -6.691406 5.054688 -6.828125 4.484375 -6.828125 C 3.921875 -6.828125 3.40625 -6.691406 2.9375 -6.421875 C 2.476562 -6.148438 2.109375 -5.78125 1.828125 -5.3125 C 1.554688 -4.851562 1.421875 -4.335938 1.421875 -3.765625 C 1.421875 -3.191406 1.554688 -2.671875 1.828125 -2.203125 C 2.109375 -1.742188 2.476562 -1.378906 2.9375 -1.109375 C 3.40625 -0.835938 3.921875 -0.703125 4.484375 -0.703125 Z M 4.484375 -0.703125 "/>
      </g>
    </g>
    <g style="fill:#161d29;fill-opacity:1;">
      <g transform="translate(217.200279, 193.499987)">
        <path style="stroke:none" d="M 7.5625 -7.53125 L 8.40625 -7.53125 L 8.40625 0 L 7.609375 0 L 7.609375 -5.921875 L 4.984375 0 L 4.3125 0 L 1.71875 -5.953125 L 1.71875 0 L 0.921875 0 L 0.921875 -7.53125 L 1.765625 -7.53125 L 4.65625 -0.96875 Z M 7.5625 -7.53125 "/>
      </g>
    </g>
    <g style="fill:#161d29;fill-opacity:1;">
      <g transform="translate(231.239203, 193.499987)">
        <path style="stroke:none" d="M 7.5625 -7.53125 L 8.40625 -7.53125 L 8.40625 0 L 7.609375 0 L 7.609375 -5.921875 L 4.984375 0 L 4.3125 0 L 1.71875 -5.953125 L 1.71875 0 L 0.921875 0 L 0.921875 -7.53125 L 1.765625 -7.53125 L 4.65625 -0.96875 Z M 7.5625 -7.53125 "/>
      </g>
    </g>
    <g style="fill:#161d29;fill-opacity:1;">
      <g transform="translate(245.278127, 193.499987)">
        <path style="stroke:none" d="M 3.703125 0.09375 C 3.160156 0.09375 2.675781 -0.015625 2.25 -0.234375 C 1.820312 -0.453125 1.484375 -0.753906 1.234375 -1.140625 C 0.992188 -1.535156 0.875 -1.976562 0.875 -2.46875 L 0.875 -7.53125 L 1.6875 -7.53125 L 1.6875 -2.59375 C 1.6875 -2.238281 1.769531 -1.914062 1.9375 -1.625 C 2.113281 -1.332031 2.351562 -1.101562 2.65625 -0.9375 C 2.96875 -0.78125 3.316406 -0.703125 3.703125 -0.703125 C 4.097656 -0.703125 4.445312 -0.78125 4.75 -0.9375 C 5.0625 -1.101562 5.300781 -1.332031 5.46875 -1.625 C 5.644531 -1.914062 5.734375 -2.238281 5.734375 -2.59375 L 5.734375 -7.53125 L 6.546875 -7.53125 L 6.546875 -2.46875 C 6.546875 -1.976562 6.421875 -1.535156 6.171875 -1.140625 C 5.929688 -0.753906 5.597656 -0.453125 5.171875 -0.234375 C 4.742188 -0.015625 4.253906 0.09375 3.703125 0.09375 Z M 3.703125 0.09375 "/>
      </g>
    </g>
    <g style="fill:#161d29;fill-opacity:1;">
      <g transform="translate(257.421453, 193.499987)">
        <path style="stroke:none" d="M 6.328125 -7.53125 L 7.125 -7.53125 L 7.125 0 L 6.375 0 L 1.71875 -6.1875 L 1.71875 0 L 0.921875 0 L 0.921875 -7.53125 L 1.671875 -7.53125 L 6.328125 -1.34375 Z M 6.328125 -7.53125 "/>
      </g>
    </g>
    <g style="fill:#161d29;fill-opacity:1;">
      <g transform="translate(270.179909, 193.499987)">
        <path style="stroke:none" d="M 0.984375 0 L 0.984375 -7.53125 L 1.78125 -7.53125 L 1.78125 0 Z M 0.984375 0 "/>
      </g>
    </g>
    <g style="fill:#161d29;fill-opacity:1;">
      <g transform="translate(277.653289, 193.499987)">
        <path style="stroke:none" d="M 5.09375 -7.53125 L 5.09375 -6.734375 L 3 -6.734375 L 3 0 L 2.203125 0 L 2.203125 -6.734375 L 0.109375 -6.734375 L 0.109375 -7.53125 Z M 5.09375 -7.53125 "/>
      </g>
    </g>
    <g style="fill:#161d29;fill-opacity:1;">
      <g transform="translate(287.57463, 193.499987)">
        <path style="stroke:none" d="M 6.078125 -7.53125 L 3.453125 -3.578125 L 3.453125 0 L 2.65625 0 L 2.65625 -3.5625 L 0.015625 -7.53125 L 1.015625 -7.53125 L 3.046875 -4.40625 L 5.09375 -7.53125 Z M 6.078125 -7.53125 "/>
      </g>
    </g>
  </g>
</svg>
