<?xml version="1.0" encoding="UTF-8"?>
<svg version="1.1" xmlns="http://www.w3.org/2000/svg" width="103" height="101">
<path d="M0 0 C11.40900035 0.4032287 20.37670616 7.25818788 27.875 15.25 C34.5373628 23.19537002 36.25047853 31.56201623 36.3125 41.625 C36.333125 42.44613281 36.35375 43.26726562 36.375 44.11328125 C36.41159325 49.88586608 35.47134465 54.11296071 33.0625 59.375 C32.4025 60.035 31.7425 60.695 31.0625 61.375 C26.50694444 60.81944444 26.50694444 60.81944444 25.0625 59.375 C25.15752827 57.99555736 25.31681124 56.62052334 25.5 55.25 C26.89034879 42.13562898 27.38603306 30.80791557 18.9375 20.0625 C13.21506233 13.99769426 5.60472844 11.31922371 -2.22265625 8.953125 C-3.9375 8.375 -3.9375 8.375 -4.9375 7.375 C-5.125 4.9375 -5.125 4.9375 -4.9375 2.375 C-2.9375 0.375 -2.9375 0.375 0 0 Z " fill="#F9C111" transform="translate(11.9375,36.625)"/>
<path d="M0 0 C0.625 2.3125 0.625 2.3125 1 5 C-1.38274846 8.57412269 -2.03398525 8.47960033 -6.0625 9.3125 C-14.9184045 11.54965912 -21.86039027 16.41453097 -27 24 C-31.37819309 32.01810264 -32.30889812 41.00982593 -30 49.8125 C-29.67 50.864375 -29.34 51.91625 -29 53 C-28.75 55.8125 -28.75 55.8125 -29 58 C-31 60 -31 60 -33.9375 60.0625 C-37 59 -37 59 -38.8125 55.8125 C-42.72193847 43.2611449 -41.66993806 31.24051574 -35.71484375 19.45703125 C-29.38880753 9.21907291 -20.29825891 2.9198271 -8.91015625 -0.65625 C-5.86036093 -1.20508842 -3.02351486 -0.52330065 0 0 Z " fill="#EB126F" transform="translate(96,39)"/>
<path d="M0 0 C3.125 0.25 3.125 0.25 5 1.625 C6.125 3.25 6.125 3.25 6.125 5.25 C6.70894531 5.5284375 7.29289062 5.806875 7.89453125 6.09375 C9.99912351 7.18474704 11.86180929 8.40864454 13.8125 9.75 C21.5065224 14.54811729 29.32715691 14.98155812 38.125 13.25 C46.01402831 10.90495766 51.41215513 5.96284487 57.125 0.25 C59.625 0 59.625 0 62.125 0.25 C64.125 2.25 64.125 2.25 64.1875 4.9375 C62.05241523 11.59394075 56.08911824 15.76419167 50.2109375 19.1875 C40.82903391 23.96629733 29.98965132 25.60632344 19.69140625 23.09375 C10.59827478 20.10422733 1.53388078 15.44527391 -3.875 7.25 C-4.171875 4.03125 -4.171875 4.03125 -3.875 1.25 C-2.875 0.25 -2.875 0.25 0 0 Z " fill="#30D095" transform="translate(22.875,18.75)"/>
<path d="M0 0 C2 2 2 2 2.22705078 4.43017578 C2.21134033 5.92266846 2.21134033 5.92266846 2.1953125 7.4453125 C2.18564453 9.05986328 2.18564453 9.05986328 2.17578125 10.70703125 C2.15902344 11.83496094 2.14226563 12.96289062 2.125 14.125 C2.11597656 15.26066406 2.10695313 16.39632812 2.09765625 17.56640625 C2.07403098 20.37781299 2.04109013 23.18880298 2 26 C2.66 26 3.32 26 4 26 C4 27.98 4 29.96 4 32 C2.33388095 32.042721 0.66617115 32.04063832 -1 32 C-2 31 -2 31 -2.0625 28.4375 C-2.041875 27.633125 -2.02125 26.82875 -2 26 C-2.99 26 -3.98 26 -5 26 C-6.84056395 17.48739175 -6.50470884 9.29684803 -4 1 C-2.125 0.375 -2.125 0.375 0 0 Z " fill="#F60B71" transform="translate(61,65)"/>
<path d="M0 0 C0 2.62113708 -0.31292445 4.50935112 -1 7 C-1.66 7 -2.32 7 -3 7 C-3 7.66 -3 8.32 -3 9 C-1.68 8.34 -0.36 7.68 1 7 C1 7.66 1 8.32 1 9 C1.99 9 2.98 9 4 9 C3.731875 9.61875 3.46375 10.2375 3.1875 10.875 C-0.8602267 21.52691236 -2.47973117 29.9083569 1 41 C1.25 43.8125 1.25 43.8125 1 46 C0.34 46.66 -0.32 47.32 -1 48 C-4 47.875 -4 47.875 -7 47 C-8.86790938 44.45285085 -9 43.19131 -9 40 C-8.34 40 -7.68 40 -7 40 C-6.67 41.65 -6.34 43.3 -6 45 C-4.35 45.33 -2.7 45.66 -1 46 C-1 44.02 -1 42.04 -1 40 C-1.66 40 -2.32 40 -3 40 C-3.33 31.75 -3.66 23.5 -4 15 C-5.32 15 -6.64 15 -8 15 C-7.43928208 11.04693863 -6.27794197 8.51358993 -4 5.25 C-3.46375 4.47140625 -2.9275 3.6928125 -2.375 2.890625 C-1 1 -1 1 0 0 Z " fill="#F11073" transform="translate(66,51)"/>
<path d="M0 0 C-0.37130753 4.17720967 -0.77274209 7.75948877 -3.80859375 10.828125 C-5.18648203 11.82930621 -6.59228787 12.79357467 -8.02734375 13.7109375 C-10.05419911 14.92666176 -10.05419911 14.92666176 -11.59765625 16.6875 C-12.06042969 17.120625 -12.52320312 17.55375 -13 18 C-15.5 17.625 -15.5 17.625 -18 17 C-18.99 17.33 -19.98 17.66 -21 18 C-21 17.34 -21 16.68 -21 16 C-20.34 16 -19.68 16 -19 16 C-18.9175 15.2575 -18.835 14.515 -18.75 13.75 C-17.83274141 10.38671849 -16.77755085 9.08316314 -14 7 C-11.25 6.75 -11.25 6.75 -9 7 C-8.67 6.34 -8.34 5.68 -8 5 C-5.9375 3.875 -5.9375 3.875 -4 3 C-4 2.34 -4 1.68 -4 1 C-2 0 -2 0 0 0 Z " fill="#F40C71" transform="translate(84,42)"/>
<path d="M0 0 C1.875 1.125 1.875 1.125 3 3 C3.42478586 7.07794425 3.31282587 8.53076119 1 12 C-2.16045842 13.19584913 -3.61198693 13.1379602 -6.8125 12 C-9 10 -9 10 -9.5 6.5 C-9 3 -9 3 -7.875 1.0625 C-5.11019567 -0.50422245 -3.11811483 -0.38976435 0 0 Z " fill="#F8C217" transform="translate(14,58)"/>
<path d="M0 0 C3.4375 0.875 3.4375 0.875 4.9375 2.625 C5.57113583 5.47636126 5.42618455 7.12080734 4.4375 9.875 C2.6875 11.75 2.6875 11.75 0.4375 12.875 C-2.72337718 12.79790543 -4.08520469 12.30456578 -6.4375 10.1875 C-7.98209084 7.01250771 -7.5765792 5.20697451 -6.5625 1.875 C-3.5625 -0.125 -3.5625 -0.125 0 0 Z " fill="#FA0670" transform="translate(83.5625,77.125)"/>
<path d="M0 0 C2 3 2 3 1.875 6.5625 C1 10 1 10 -0.75 11.5 C-3.52703603 12.11711912 -5.29620324 11.85383055 -8 11 C-10 9 -10 9 -10.375 5.5625 C-10 2 -10 2 -8.375 0 C-5.16403572 -1.35198496 -3.30053834 -1.00451167 0 0 Z " fill="#E81671" transform="translate(97,60)"/>
<path d="M0 0 C1.875 1.125 1.875 1.125 3 3 C3.42478586 7.07794425 3.31282587 8.53076119 1 12 C-2.42201828 12.37331109 -4.90185629 12.63763183 -7.9375 10.875 C-9.50422245 8.11019567 -9.38976435 6.11811483 -9 3 C-6.79086995 -0.68188342 -4.01844539 -0.50230567 0 0 Z " fill="#FBC104" transform="translate(24,76)"/>
<path d="M0 0 C1.8125 1.125 1.8125 1.125 3 3 C3.4026126 6.22090079 3.6274149 8.1335699 1.6875 10.8125 C0 12 0 12 -3 13 C-5.625 12.1875 -5.625 12.1875 -8 11 C-9.41441874 8.17116253 -9.31900332 6.12623255 -9 3 C-6.30254095 0.00282328 -3.95012118 -0.60771095 0 0 Z " fill="#36CD96" transform="translate(66,5)"/>
<path d="M0 0 C3.4375 0.1875 3.4375 0.1875 7 1 C8.96904635 3.29722074 9.01073085 4.56003514 8.9375 7.5625 C8 10 8 10 5.75 11.9375 C3 13 3 13 0.3125 12.5 C-2 11 -2 11 -3.5 8.6875 C-4 6 -4 6 -2.6875 3.25 C-1 1 -1 1 0 0 Z " fill="#29D495" transform="translate(40,5)"/>
<path d="M0 0 C2.97 0.99 5.94 1.98 9 3 C9 3.33 9 3.66 9 4 C7.02 4 5.04 4 3 4 C3.33 5.65 3.66 7.3 4 9 C6.64 9.66 9.28 10.32 12 11 C12 10.34 12 9.68 12 9 C12.99 9.33 13.98 9.66 15 10 C15 10.66 15 11.32 15 12 C18.96 12 22.92 12 27 12 C27 12.33 27 12.66 27 13 C13.97002772 14.65673187 4.30826927 13.03188263 -7 6 C-7.66 5.01 -8.32 4.02 -9 3 C-6.03 3.33 -3.06 3.66 0 4 C0 2.68 0 1.36 0 0 Z " fill="#3BC893" transform="translate(35,29)"/>
<path d="M0 0 C1 3 1 3 0.5625 5.0625 C-0.77915329 12.06891161 -0.12727598 18.21930782 2 25 C2.25 27.8125 2.25 27.8125 2 30 C1.34 30.66 0.68 31.32 0 32 C-3 31.875 -3 31.875 -6 31 C-7.86790938 28.45285085 -8 27.19131 -8 24 C-7.34 24 -6.68 24 -6 24 C-5.67 25.65 -5.34 27.3 -5 29 C-3.35 29.33 -1.7 29.66 0 30 C0 28.02 0 26.04 0 24 C-0.66 24 -1.32 24 -2 24 C-2.33 16.74 -2.66 9.48 -3 2 C-2.01 2 -1.02 2 0 2 C0 1.34 0 0.68 0 0 Z " fill="#DA2B75" transform="translate(65,67)"/>
<path d="M0 0 C2.31 1.98 4.62 3.96 7 6 C6.67 6.66 6.34 7.32 6 8 C5.34 7.34 4.68 6.68 4 6 C1.93125966 5.3574765 1.93125966 5.3574765 0 5 C0 5.66 0 6.32 0 7 C0.66 7.33 1.32 7.66 2 8 C2 10.64 2 13.28 2 16 C1.443125 15.29875 0.88625 14.5975 0.3125 13.875 C-2.09124732 10.88655739 -4.53810432 7.94059762 -7 5 C-6.38125 5.20625 -5.7625 5.4125 -5.125 5.625 C-4.42375 5.74875 -3.7225 5.8725 -3 6 C-0.62841973 3.9714169 -0.62841973 3.9714169 0 0 Z " fill="#F4C329" transform="translate(34,47)"/>
<path d="M0 0 C3.4375 0.1875 3.4375 0.1875 7 1 C8.5 2.75 8.5 2.75 9 5 C8.625 7.75 8.625 7.75 8 10 C7.67 10 7.34 10 7 10 C7 8.35 7 6.7 7 5 C5.35 5.33 3.7 5.66 2 6 C2 5.34 2 4.68 2 4 C0.35 4.33 -1.3 4.66 -3 5 C-1.125 1.125 -1.125 1.125 0 0 Z " fill="#3EC794" transform="translate(40,5)"/>
<path d="M0 0 C0.99 0 1.98 0 3 0 C4.77410051 5.31531689 5.2577668 9.85618805 5.125 15.4375 C5.11597656 16.16904297 5.10695313 16.90058594 5.09765625 17.65429688 C5.07436153 19.43634298 5.0385019 21.21821759 5 23 C4.34 23 3.68 23 3 23 C2.92652344 21.515 2.92652344 21.515 2.8515625 20 C2.47596893 13.14476671 2.02153511 6.60368135 0 0 Z " fill="#F3C430" transform="translate(36,63)"/>
<path d="M0 0 C3.125 0.25 3.125 0.25 5 1.75 C5.37125 2.245 5.7425 2.74 6.125 3.25 C5.795 3.91 5.465 4.57 5.125 5.25 C4.465 4.59 3.805 3.93 3.125 3.25 C1.805 3.25 0.485 3.25 -0.875 3.25 C-1.205 4.57 -1.535 5.89 -1.875 7.25 C-0.885 7.25 0.105 7.25 1.125 7.25 C1.785 9.23 2.445 11.21 3.125 13.25 C0.5858156 11.42334183 -1.77473879 9.5760393 -3.875 7.25 C-4.375 3.9375 -4.375 3.9375 -3.875 1.25 C-2.875 0.25 -2.875 0.25 0 0 Z " fill="#4CC798" transform="translate(22.875,18.75)"/>
<path d="M0 0 C-0.875 6.875 -0.875 6.875 -2 8 C-3.66617115 8.04063832 -5.33388095 8.042721 -7 8 C-7.33 8.66 -7.66 9.32 -8 10 C-8.33 8.35 -8.66 6.7 -9 5 C-7.35 4.34 -5.7 3.68 -4 3 C-4 2.34 -4 1.68 -4 1 C-2 0 -2 0 0 0 Z " fill="#FD0573" transform="translate(84,42)"/>
<path d="M0 0 C0.33 0 0.66 0 1 0 C1 2.64 1 5.28 1 8 C4.465 7.505 4.465 7.505 8 7 C8.66 5.02 9.32 3.04 10 1 C10.33 1 10.66 1 11 1 C11.25 6.625 11.25 6.625 9 10 C5.57798172 10.37331109 3.09814371 10.63763183 0.0625 8.875 C-1.46154563 6.18550771 -1.26357307 4.03109027 -1 1 C-0.67 0.67 -0.34 0.34 0 0 Z " fill="#F3CA42" transform="translate(16,78)"/>
<path d="M0 0 C-0.33 0.66 -0.66 1.32 -1 2 C-3.31 1.67 -5.62 1.34 -8 1 C-7.855625 2.27875 -7.71125 3.5575 -7.5625 4.875 C-7.48128906 5.59429687 -7.40007812 6.31359375 -7.31640625 7.0546875 C-7.08707039 9.07404316 -7.08707039 9.07404316 -6 11 C-7.9375 10.3125 -7.9375 10.3125 -10 9 C-11.05683569 6.131446 -11.2299767 4.63685855 -10.1875 1.75 C-7.49910175 -2.21185006 -4.22640759 -0.70440127 0 0 Z " fill="#D8256E" transform="translate(87,78)"/>
<path d="M0 0 C0.33 0 0.66 0 1 0 C1.07347656 1.06541016 1.07347656 1.06541016 1.1484375 2.15234375 C1.22320312 3.07144531 1.29796875 3.99054688 1.375 4.9375 C1.44460937 5.85402344 1.51421875 6.77054687 1.5859375 7.71484375 C1.72257812 8.46894531 1.85921875 9.22304687 2 10 C2.66 10.33 3.32 10.66 4 11 C4.33 10.01 4.66 9.02 5 8 C5.66 8 6.32 8 7 8 C7.33 6.02 7.66 4.04 8 2 C9.15154588 4.82652171 9.07817396 5.81325108 7.875 8.6875 C6 11 6 11 3.4375 11.9375 C2.633125 11.958125 1.82875 11.97875 1 12 C0.34 11.34 -0.32 10.68 -1 10 C-0.9765625 7.6171875 -0.9765625 7.6171875 -0.625 4.875 C-0.51414063 3.96492188 -0.40328125 3.05484375 -0.2890625 2.1171875 C-0.19367187 1.41851562 -0.09828125 0.71984375 0 0 Z " fill="#F2C63E" transform="translate(38,86)"/>
<path d="M0 0 C5.75 -0.125 5.75 -0.125 8 1 C8.25 6.625 8.25 6.625 6 10 C4.68 9.67 3.36 9.34 2 9 C2.639375 8.401875 3.27875 7.80375 3.9375 7.1875 C6.20310389 5.09189663 6.20310389 5.09189663 7 2 C4.36 2 1.72 2 -1 2 C-0.67 1.34 -0.34 0.68 0 0 Z " fill="#F5C224" transform="translate(18,76)"/>
<path d="M0 0 C0.66 0.33 1.32 0.66 2 1 C2.25 6.625 2.25 6.625 0 10 C-2.4375 10.8125 -2.4375 10.8125 -5 11 C-5.99 10.34 -6.98 9.68 -8 9 C-6.35 8.67 -4.7 8.34 -3 8 C-3 7.34 -3 6.68 -3 6 C-2.34 6 -1.68 6 -1 6 C-0.67 4.02 -0.34 2.04 0 0 Z " fill="#F2C535" transform="translate(15,60)"/>
<path d="M0 0 C2.97 0.99 5.94 1.98 9 3 C9 3.66 9 4.32 9 5 C9.66 5 10.32 5 11 5 C11 5.66 11 6.32 11 7 C6.00724943 5.72278474 3.42388092 3.82669043 0 0 Z " fill="#41C493" transform="translate(26,32)"/>
<path d="M0 0 C0.66 0.66 1.32 1.32 2 2 C1.875 4.5 1.875 4.5 1 7 C-1.0625 8.3125 -1.0625 8.3125 -3 9 C-2.67 7.35 -2.34 5.7 -2 4 C-1.34 4 -0.68 4 0 4 C0 2.68 0 1.36 0 0 Z " fill="#DE1870" transform="translate(87,80)"/>
<path d="M0 0 C0.66 0 1.32 0 2 0 C2 0.99 2 1.98 2 3 C4.64 3 7.28 3 10 3 C9 5 9 5 7.25 5.8125 C4.0237884 6.08135097 2.50719024 4.95003686 0 3 C0 2.01 0 1.02 0 0 Z " fill="#45C092" transform="translate(37,12)"/>
<path d="M0 0 C-0.99 0.33 -1.98 0.66 -3 1 C-3 1.66 -3 2.32 -3 3 C-5.97 3 -8.94 3 -12 3 C-7.86112344 0.24074896 -4.92824278 -0.13689563 0 0 Z " fill="#D71F6C" transform="translate(94,38)"/>
<path d="M0 0 C3.00617269 3.00617269 2.59585316 5.82381598 3 10 C2.67 9.34 2.34 8.68 2 8 C1.34 8 0.68 8 0 8 C0 5.36 0 2.72 0 0 Z " fill="#DC1E6F" transform="translate(63,83)"/>
<path d="M0 0 C0.75 1.75 0.75 1.75 1 4 C-0.9375 6.25 -0.9375 6.25 -3 8 C-3.33 6.68 -3.66 5.36 -4 4 C-3.34 4 -2.68 4 -2 4 C-2 3.34 -2 2.68 -2 2 C-1.34 2 -0.68 2 0 2 C0 1.34 0 0.68 0 0 Z " fill="#44C997" transform="translate(86,21)"/>
<path d="M0 0 C2.31 0 4.62 0 7 0 C7 0.66 7 1.32 7 2 C5.35 2.66 3.7 3.32 2 4 C1.34 2.68 0.68 1.36 0 0 Z " fill="#31D099" transform="translate(61,14)"/>
<path d="M0 0 C0 2.62113708 -0.31292445 4.50935112 -1 7 C-2.32 7.33 -3.64 7.66 -5 8 C-3.8141763 4.62496331 -2.72426311 2.35277269 0 0 Z " fill="#DC226F" transform="translate(66,51)"/>
</svg>
